<svg width="40" height="40" viewBox="0 0 40 40" fill="none" xmlns="http://www.w3.org/2000/svg">
<path d="M34.7426 34.0791C37.3573 31.5048 39.1111 28.3999 40.0041 25.1167C33.2262 26.8989 25.696 25.1721 20.3822 19.9365C15.0685 14.7008 13.3066 7.28698 15.1167 0.617676C11.7821 1.49292 8.62841 3.21966 6.01377 5.79787C-1.91865 13.6078 -1.91865 26.2731 6.01377 34.083C13.9462 41.8929 26.8102 41.8929 34.7426 34.083V34.0791Z" fill="#38FF22"/>
<path d="M20.3138 20C20.3138 12.598 24.4006 6.13465 30.4706 2.67723C27.4819 0.974257 24.0145 0 20.3138 0C9.09493 0 0 8.95446 0 20C0 31.0455 9.09493 40 20.3138 40C24.0145 40 27.4819 39.0257 30.4706 37.3228C24.4006 33.8653 20.3138 27.402 20.3138 20Z" fill="#A2FF2D"/>
</svg>
